<?xml version="1.0" encoding="UTF-8" standalone="no"?>
<!-- Created with Inkscape (http://www.inkscape.org/) -->

<svg
   width="800mm"
   height="800mm"
   viewBox="0 0 800 800"
   version="1.1"
   id="svg1"
   xml:space="preserve"
   sodipodi:docname="icon.svg"
   inkscape:version="1.3.2 (091e20e, 2023-11-25, custom)"
   xmlns:inkscape="http://www.inkscape.org/namespaces/inkscape"
   xmlns:sodipodi="http://sodipodi.sourceforge.net/DTD/sodipodi-0.dtd"
   xmlns:xlink="http://www.w3.org/1999/xlink"
   xmlns="http://www.w3.org/2000/svg"
   xmlns:svg="http://www.w3.org/2000/svg"><sodipodi:namedview
     id="namedview1"
     pagecolor="#ffffff"
     bordercolor="#000000"
     borderopacity="0.25"
     inkscape:showpageshadow="2"
     inkscape:pageopacity="0.0"
     inkscape:pagecheckerboard="0"
     inkscape:deskcolor="#d1d1d1"
     inkscape:document-units="mm"
     inkscape:zoom="0.18284757"
     inkscape:cx="440.25742"
     inkscape:cy="1129.356"
     inkscape:window-width="1920"
     inkscape:window-height="1017"
     inkscape:window-x="-8"
     inkscape:window-y="-8"
     inkscape:window-maximized="1"
     inkscape:current-layer="layer1"
     showgrid="false"><inkscape:grid
       id="grid21"
       units="mm"
       originx="0"
       originy="0"
       spacingx="0.99999998"
       spacingy="1"
       empcolor="#0099e5"
       empopacity="0.30196078"
       color="#0099e5"
       opacity="0.14902"
       empspacing="5"
       dotted="false"
       gridanglex="30"
       gridanglez="30"
       visible="false" /></sodipodi:namedview><defs
     id="defs1"><linearGradient
       id="linearGradient46"
       inkscape:collect="always"><stop
         style="stop-color:#ffdf42;stop-opacity:1;"
         offset="0"
         id="stop46" /><stop
         style="stop-color:#ffb810;stop-opacity:1;"
         offset="1"
         id="stop47" /></linearGradient><linearGradient
       id="linearGradient42"
       inkscape:collect="always"><stop
         style="stop-color:#49c7ff;stop-opacity:1;"
         offset="0"
         id="stop42" /><stop
         style="stop-color:#bd34fe;stop-opacity:1;"
         offset="1"
         id="stop43" /></linearGradient><linearGradient
       inkscape:collect="always"
       xlink:href="#linearGradient42"
       id="linearGradient43"
       x1="118.95154"
       y1="96.03096"
       x2="399.88574"
       y2="426.90765"
       gradientUnits="userSpaceOnUse"
       spreadMethod="pad" /><linearGradient
       inkscape:collect="always"
       xlink:href="#linearGradient46"
       id="linearGradient47"
       x1="85.099083"
       y1="68.282143"
       x2="117.2252"
       y2="126.88628"
       gradientUnits="userSpaceOnUse"
       gradientTransform="matrix(1.1021753,0,0,0.96265831,-11.58119,7.8288562)" /><filter
       style="color-interpolation-filters:sRGB;"
       inkscape:label="Drop Shadow"
       id="filter17"
       x="-0.20462828"
       y="-0.18283686"
       width="1.4535478"
       height="1.4769396"><feFlood
         result="flood"
         in="SourceGraphic"
         flood-opacity="0.498039"
         flood-color="rgb(0,0,0)"
         id="feFlood16" /><feGaussianBlur
         result="blur"
         in="SourceGraphic"
         stdDeviation="11.550152"
         id="feGaussianBlur16" /><feOffset
         result="offset"
         in="blur"
         dx="6.000000"
         dy="16.869301"
         id="feOffset16" /><feComposite
         result="comp1"
         operator="in"
         in="flood"
         in2="offset"
         id="feComposite16" /><feComposite
         result="comp2"
         operator="over"
         in="SourceGraphic"
         in2="comp1"
         id="feComposite17" /></filter><filter
       style="color-interpolation-filters:sRGB;"
       inkscape:label="Blur"
       id="filter39"
       x="-0.050367558"
       y="-0.050653823"
       width="1.1007351"
       height="1.1013076"><feGaussianBlur
         stdDeviation="10.7451 10.7451"
         result="blur"
         id="feGaussianBlur39" /></filter></defs><g
     inkscape:label="Layer 1"
     inkscape:groupmode="layer"
     id="layer1"
     inkscape:highlight-color="#f380ee"
     style="display:inline;filter:url(#filter17);image-rendering:auto"
     transform="matrix(4.2212863,0,0,4.2212863,-52.64882,-188.55513)"><g
       style="display:inline;opacity:1"
       id="g29"
       transform="matrix(0.26458333,0,0,0.26458333,36.037433,76.968403)"><g
         id="g1">
	<path
   class="st0"
   d="m 509.531,289.882 c -1.813,-5.688 -4.5,-10.891 -7.828,-15.453 -0.547,-0.797 -1.063,-1.469 -1.672,-2.203 -1.063,-1.734 -2.281,-3.344 -3.688,-4.938 l -8.281,-7.297 -37.625,-33.078 -20.25,-17.781 38.625,-34.234 c 5.813,-5.156 6.344,-14.031 1.203,-19.844 -5.078,-5.828 -13.969,-6.359 -19.797,-1.219 l -41.313,36.578 -116.702,103.282 c -7.359,6.484 -16.719,9.953 -26.359,9.953 -2.797,0 -5.594,-0.266 -8.406,-0.875 l -66.719,-14.766 -80.563,-17.781 -56.469,-12.5 -8.094,-1.797 c -2.547,-0.875 -4.813,-2.016 -6.813,-3.484 -3.219,-2.344 -5.75,-5.344 -7.5,-8.828 -1.797,-3.469 -2.75,-7.359 -2.75,-11.297 0,-2.406 0.406,-4.953 1.156,-7.422 0.875,-2.672 2.125,-5.078 3.672,-7.203 2.281,-3.219 5.344,-5.766 8.813,-7.5 3.422,-1.797 7.297,-2.75 11.234,-2.75 0.672,0 1.344,0.078 2,0.078 l 58.234,12.563 135.047,29.219 c 16.703,3.672 34.156,-0.875 46.984,-12.234 l 83.016,-73.125 84.781,-74.672 c 7.625,-6.766 10.828,-17.188 8.219,-27.016 -2.531,-9.891 -10.438,-17.453 -20.391,-19.594 L 440.732,40.398 363.716,23.742 266.188,2.695 C 249.485,-0.977 232.032,3.554 219.204,14.929 L 88.906,129.382 49.734,163.804 15.656,193.757 c -1.422,1.594 -2.625,3.203 -3.688,4.938 -0.609,0.734 -1.141,1.406 -1.672,2.203 -3.344,4.563 -6.016,9.766 -7.828,15.453 C 0.813,221.632 0,227.039 0,232.32 c 0,11.438 3.672,22.328 10.156,31.281 3.281,4.547 7.219,8.563 11.844,11.906 4.531,3.344 9.75,6.016 15.438,7.75 l 0.594,0.203 59.438,13.031 11.5,10.234 -1.688,1.469 -39.156,34.438 -34.095,29.938 c -1.406,1.609 -2.609,3.219 -3.688,4.953 -0.594,0.734 -1.125,1.406 -1.656,2.203 -3.344,4.547 -6.031,9.75 -7.828,15.438 -1.672,5.281 -2.484,10.703 -2.484,15.984 0,11.422 3.688,22.313 10.156,31.281 3.281,4.547 7.219,8.563 11.844,11.906 4.547,3.344 9.766,6.016 15.438,7.75 l 0.594,0.203 59.438,13.031 56.297,12.297 97.734,21.391 c 4.75,1.063 9.547,1.547 14.375,1.547 16.375,0 32.344,-5.891 44.906,-16.922 l 3.344,-2.938 116.063,-102.75 38.641,-34.234 c 1.734,-1.531 2.953,-3.328 3.734,-5.344 4.219,-3.203 7.906,-7.016 10.906,-11.234 6.469,-8.953 10.156,-19.844 10.156,-31.281 -10e-4,-5.281 -0.813,-10.687 -2.47,-15.969 z m -82.218,79.344 -116.735,103.281 c -7.359,6.5 -16.703,9.969 -26.328,9.969 -2.813,0 -5.625,-0.281 -8.438,-0.875 l -66.703,-14.781 -80.547,-17.781 -56.5,-12.484 -8.094,-1.813 c -2.531,-0.875 -4.813,-2 -6.813,-3.484 -3.203,-2.328 -5.75,-5.344 -7.5,-8.813 -1.797,-3.484 -2.734,-7.359 -2.734,-11.297 0,-2.406 0.406,-4.953 1.141,-7.421 0.875,-2.672 2.141,-5.078 3.688,-7.219 2.266,-3.219 5.344,-5.75 8.813,-7.484 3.406,-1.813 7.281,-2.75 11.234,-2.75 0.672,0 1.328,0.063 2,0.063 l 58.234,12.578 135.031,29.203 c 16.719,3.688 34.156,-0.859 47,-12.234 l 36.094,-31.75 80.156,-17.578 z m 53.406,-52.062 c -1.75,3.469 -4.281,6.484 -7.5,8.813 -2,1.469 -4.281,2.609 -6.813,3.484 L 394,345.492 254.563,376.32 c -2.75,0.594 -5.625,0.859 -8.422,0.859 -9.625,0 -18.984,-3.469 -26.344,-9.953 l -66.047,-58.422 97.734,21.391 c 4.75,1.063 9.563,1.531 14.359,1.531 16.391,0 32.375,-5.875 44.938,-16.922 l 3.344,-2.938 142.516,-30.813 c 0.672,0 1.281,-0.063 1.953,-0.063 2.531,0 5,0.391 7.344,1.141 1.344,0.391 2.672,0.922 3.938,1.594 3.422,1.734 6.5,4.281 8.844,7.5 1.531,2.125 2.719,4.531 3.594,7.203 0.797,2.484 1.156,5.016 1.156,7.422 -0.001,3.954 -0.97,7.829 -2.751,11.314 z"
   style="display:inline;fill:url(#linearGradient43);fill-opacity:1;fill-rule:nonzero"
   id="path1" />
<g
   id="g41"
   transform="matrix(0.89534975,0,0,0.89534975,-130.24331,-114.32435)"><path
     style="fill:#ffffff;fill-opacity:0.46739131;stroke-width:5.47765"
     d="m 1532.6301,2061.7043 c -11.3168,-4.1553 -26.0832,-11.3739 -32.8142,-16.0413 -14.4494,-10.0194 -288.1389,-251.2 -286.6847,-252.6322 0.5472,-0.539 95.4179,19.7273 210.8239,45.0361 224.9875,49.3403 259.7282,53.4554 319.6103,37.8581 38.5422,-10.039 75.807,-28.5852 110.2273,-54.8588 25.7829,-19.6805 30.7249,-20.9633 330.3966,-85.7583 287.6535,-62.1964 305.5625,-65.4157 328.8328,-59.1108 49.1977,13.3296 84.3995,71.3782 71.6204,118.1038 -9.1779,33.5582 -24.2473,53.5721 -50.3105,66.8178 -34.5151,17.5412 -906.2286,209.0448 -949.1989,208.5262 -17.5598,-0.212 -41.1861,-3.7852 -52.503,-7.9406 z"
     id="path39"
     transform="scale(0.26458333)" /><path
     style="fill:#ffffff;fill-opacity:0.46739131;stroke-width:5.47765"
     d="m 1279.7545,2417.2807 c -249.6615,-55.5302 -460.37486,-103.6302 -468.25187,-106.889 -18.6826,-7.7292 -46.3638,-36.6638 -53.70567,-56.1375 -14.65752,-38.8779 -2.53897,-84.0478 30.27981,-112.8631 39.43556,-34.6249 17.14798,-37.5508 481.81153,63.2521 460.5682,99.9144 472.4303,101.6754 532.661,79.0771 39.1592,-14.6923 63.1431,-32.1686 153.8555,-112.1093 l 74.0136,-65.2248 157.4572,-34.5712 c 86.6015,-19.0142 158.3169,-33.7116 159.3676,-32.6609 1.0507,1.0508 -110.2346,101.333 -247.3006,222.8494 -156.1404,138.4268 -259.8337,226.3893 -277.6549,235.5332 -56.3795,28.9278 -42.2491,31.0181 -542.5332,-80.256 z"
     id="path40"
     transform="scale(0.26458333)" /><path
     style="fill:#ffffff;fill-opacity:0.46739131;stroke-width:3.87328"
     d="M 1193.6918,1661.3135 C 946.26596,1606.3131 737.15387,1558.3037 728.99823,1554.626 c -44.72077,-20.1662 -68.84711,-84.5601 -48.8524,-130.3883 13.69303,-31.3848 48.255,-57.8895 82.33831,-63.1434 11.09446,-1.7102 120.63623,20.6322 435.61386,88.8486 443.8748,96.1325 449.1637,97.0548 498.4424,86.9178 11.2712,-2.3186 34.415,-10.8757 51.4307,-19.0158 28.3964,-13.5846 60.4774,-40.8316 390.5864,-331.733 197.8069,-174.313 360.2234,-315.4332 360.9254,-313.60037 0.7021,1.83283 -10.4443,60.66376 -24.7698,130.73537 l -26.0463,127.403 -337.5384,298.9926 c -384.7903,340.8485 -369.0321,328.7867 -431.9537,330.6289 -34.1765,1.0007 -53.8218,-3.0037 -485.4829,-98.9579 z"
     id="path41"
     transform="scale(0.26458333)" /></g></g></g><path
       style="display:inline;fill:url(#linearGradient47);stroke-width:0.268044;stroke-dasharray:none"
       d="m 80.87738,71.876427 -2.65163,47.502933 c 0,0 0.0447,2.34142 1.83168,2.0136 1.78701,-0.32779 12.241,-2.8565 12.241,-2.8565 0,0 2.59116,-0.56193 2.23376,1.77947 -0.3574,2.34139 -3.66337,18.87165 -3.66337,18.87165 0,0 -0.0893,2.6692 2.14442,2.0136 2.23375,-0.65559 7.77348,-2.43505 7.77348,-2.43505 0,0 1.9657,0.0937 1.83167,1.54533 -0.13401,1.45166 -5.763089,29.87622 -5.763089,29.87622 0,0 -0.3574,2.06042 1.02753,2.15409 1.384919,0.0937 1.881949,-0.56194 1.881949,-0.56194 l 36.76207,-76.516868 c 0,0 1.47429,-3.83989 -2.99324,-2.71601 -4.46751,1.12387 -10.76672,2.43505 -10.76672,2.43505 0,0 -3.12726,0.5151 -2.41245,-2.10726 0.7148,-2.62236 8.30957,-30.625475 8.30957,-30.625475 0,0 0.0446,-2.24774 -2.1444,-1.732632 -2.18907,0.515107 -44.49647,9.08462 -44.49647,9.08462 0,0 -0.42718,0.301096 -0.81954,0.814683 -0.37452,0.490248 -0.30761,1.239662 -0.32622,1.460489 z"
       id="path32"
       sodipodi:nodetypes="ccscscscscsccscscscsc" /></g><style
     type="text/css"
     id="style1">

	.st0{fill:#4B4B4B;}

</style></svg>
